<?xml version="1.0" encoding="UTF-8"?>
<svg xmlns="http://www.w3.org/2000/svg" xmlns:xlink="http://www.w3.org/1999/xlink" width="14px" height="14px" viewBox="0 0 14 14" version="1.1">
<g id="surface1">
<path style=" stroke:none;fill-rule:evenodd;fill:rgb(100%,100%,100%);fill-opacity:1;" d="M 2.839844 1.402344 C 2.714844 1.402344 2.597656 1.414062 2.484375 1.441406 C 2.339844 1.113281 2.136719 0.8125 1.886719 0.554688 C 1.492188 0.15625 0.867188 0 0 0 L 0 1.398438 C 0.527344 1.398438 0.832031 1.476562 0.902344 1.542969 C 1.164062 1.808594 1.394531 2.347656 1.394531 2.800781 L 1.402344 2.898438 L 2.085938 7.699219 C 0.941406 7.761719 0.0546875 8.652344 0 9.765625 L 0 10.5 C 0.0664062 11.652344 0.949219 12.535156 2.054688 12.597656 L 2.210938 12.597656 C 2.503906 13.4375 3.296875 14 4.183594 14 C 5.074219 14 5.863281 13.4375 6.160156 12.601562 L 7.792969 12.601562 C 8.085938 13.4375 8.875 14 9.765625 14 C 10.921875 13.996094 11.859375 13.058594 11.855469 11.898438 C 11.855469 10.742188 10.921875 9.800781 9.765625 9.800781 C 8.875 9.800781 8.085938 10.363281 7.792969 11.199219 L 6.160156 11.199219 C 5.863281 10.363281 5.074219 9.800781 4.183594 9.800781 C 3.296875 9.800781 2.503906 10.363281 2.210938 11.199219 L 2.09375 11.199219 C 1.738281 11.179688 1.417969 10.859375 1.394531 10.457031 L 1.394531 9.800781 C 1.414062 9.4375 1.730469 9.117188 2.125 9.097656 L 3.503906 9.097656 L 3.515625 9.101562 L 10.542969 9.101562 L 10.648438 9.066406 C 11.175781 8.898438 11.601562 8.5 11.800781 7.980469 L 11.871094 7.835938 L 12.113281 7.363281 C 12.359375 6.871094 12.605469 6.378906 12.847656 5.894531 C 13.203125 5.195312 13.550781 4.492188 13.890625 3.785156 C 14.3125 2.84375 13.457031 2.117188 12.585938 2.101562 Z M 10.300781 7.699219 L 3.566406 7.699219 C 3.519531 7.6875 3.488281 7.648438 3.480469 7.601562 L 2.796875 2.800781 L 12.480469 3.496094 C 12.3125 3.84375 12.003906 4.460938 11.601562 5.269531 L 11.589844 5.289062 L 10.867188 6.730469 L 10.628906 7.207031 L 10.539062 7.382812 L 10.503906 7.464844 C 10.46875 7.566406 10.394531 7.648438 10.300781 7.699219 Z M 9.765625 12.601562 C 9.949219 12.601562 10.128906 12.527344 10.257812 12.394531 C 10.390625 12.261719 10.464844 12.085938 10.460938 11.898438 C 10.460938 11.511719 10.148438 11.199219 9.765625 11.199219 C 9.578125 11.199219 9.402344 11.273438 9.269531 11.40625 C 9.140625 11.535156 9.066406 11.714844 9.066406 11.898438 C 9.066406 12.285156 9.378906 12.601562 9.765625 12.601562 Z M 4.882812 11.898438 C 4.882812 12.285156 4.570312 12.601562 4.183594 12.601562 C 4 12.601562 3.820312 12.527344 3.691406 12.394531 C 3.558594 12.261719 3.488281 12.085938 3.488281 11.898438 C 3.488281 11.511719 3.800781 11.199219 4.183594 11.199219 C 4.570312 11.199219 4.882812 11.511719 4.882812 11.898438 Z M 4.882812 11.898438 "/>
</g>
</svg>
